<?xml version="1.0" encoding="UTF-8"?>
<!DOCTYPE svg PUBLIC "-//W3C//DTD SVG 1.1//EN" "http://www.w3.org/Graphics/SVG/1.1/DTD/svg11.dtd">
<!-- Creator: CorelDRAW -->
<svg xmlns="http://www.w3.org/2000/svg" xml:space="preserve" width="263.627mm" height="61.6241mm" version="1.1" style="shape-rendering:geometricPrecision; text-rendering:geometricPrecision; image-rendering:optimizeQuality; fill-rule:evenodd; clip-rule:evenodd"
viewBox="0 0 26361.62 6162.15"
 xmlns:xlink="http://www.w3.org/1999/xlink"
 xmlns:xodm="http://www.corel.com/coreldraw/odm/2003">
 <defs>
  <style type="text/css">
   <![CDATA[
    .fil0 {fill:#1B1714}
    .fil1 {fill:#1B1714;fill-rule:nonzero}
   ]]>
  </style>
 </defs>
 <g id="Слой_x0020_1">
  <metadata id="CorelCorpID_0Corel-Layer"/>
  <g id="_1829416282416">
   <g>
    <path class="fil0" d="M2241.3 5104.5c10,8.3 9.28,8.39 25,17.1 65.57,36.32 75.54,16.25 197.46,102.37 156.82,110.76 233.12,191.55 357.67,325.49 37.89,40.74 155.34,123.52 153.23,187.49 -366.37,0.54 -803.94,19.55 -1171.21,42.7 -114.44,7.22 -280.74,28.67 -389.36,22.11 -35.37,-25.36 -124.37,-133.3 -153.72,-176.32 -7.5,-30.32 282.54,-535.36 309.51,-562.15 55.4,-55.02 407.81,-212.57 553.86,-314.23 352.99,-245.68 400.79,-437.23 908.58,-371.14 67.14,8.75 130.5,14.31 200.11,18.46 119.15,7.1 57.73,26.97 82.58,137.75 505.13,1.45 750.07,-190.04 922.85,-203.91 125.87,348.93 287.79,770.83 403.16,1124.47 23.25,71.25 19.29,144.14 65.11,189.43 54.59,53.98 92.98,41.41 118.3,150.24 -448.46,-18.62 -912.21,-50.82 -1361.89,-56.83 -102.33,-1.36 -97.31,-13.58 -163.49,-63.81 -223.68,-169.72 -170.39,-141.57 -361.96,-344.29 -322.48,-341.25 -363.36,-286.41 -227.09,-549.51 36.24,-69.95 130.81,-254.91 148.19,-322.22 -192.35,-16.87 -361.66,70.91 -454.21,166.34 -89.03,91.81 -134.81,320.55 -162.65,480.44zm1250.8 -724.22c-6.22,-54.58 15.43,-109.39 41.03,-143.99 60.86,-23.46 313.85,47.78 353.18,81.03 -25.8,19.01 -348.41,66.68 -394.2,62.97zm154.87 -262.26c-124.62,9.75 -133.12,-47.37 -88.86,-239.88 20.65,-89.82 65.13,-223.26 168.39,-194.79 48.39,90.01 -51.21,330.13 -79.54,434.67zm-639.58 -1465.38c6.59,-85.03 57.06,-173.36 101.79,-206.1 96.5,-70.64 366.12,107.09 487.47,13.12 85.13,-65.92 124.63,-48.58 199.91,4.12 -1.78,238.28 -134.33,158.08 -228.85,147.8 -60.98,-6.63 -126.26,7.01 -186.35,13.31 -120.86,12.68 -250.67,29.73 -373.96,27.75zm-134.7 -85.96c-82.17,-72.54 -76.9,-303.32 -59,-425.05 22.19,-150.95 82.8,-260.7 208.93,-302.82 221.61,-74.02 526.03,133.03 459.13,521.11l-224.91 -46.51c4.87,-110.61 62.91,-246 -13.92,-334.26 -80.73,-92.75 -226.8,-43.17 -265.5,35.36 -77.96,158.12 45.43,184.15 29.17,307.88 -8.57,65.24 -41.1,80.41 -72.22,123.49 -24.85,34.4 -38,84.3 -61.69,120.79zm2528.54 -430.59c-237.27,-86.89 -70.4,-357.05 87.68,-397.47 44.45,86.72 86.67,413.29 92.64,529.7 8.33,162.55 65.1,441.91 -56.72,528.84 -41.01,-102.46 -52.56,-454.41 -55.26,-598.26 -1.41,-74.99 15.83,-135.84 8.58,-197.99l-119.02 -81.08c-11.82,142.87 32.25,110.22 42.1,216.26zm-1160.64 -1409.43l-15.24 -163.7c-64.02,30.93 -155.65,199.62 -199.92,276.91 -82.86,144.69 -79.64,205.17 -77.51,400.2 -31.14,-47.93 -30.2,-98.66 -44.04,-163.3 -40.83,38.23 -89.63,184 -107.84,251.57 -39.4,146.13 11.49,210.36 10.98,332.19 -28.46,-40.61 -60.44,-118.71 -77.7,-140.37 -66.86,157.78 -16.25,379.31 38.02,514.29 26.3,-43.17 64.21,-153.57 85.67,-209.62 135.28,-353.38 300.96,-701.78 484.28,-1021.14 36.63,-63.81 73.19,-124.16 115.75,-184.86 35.58,-50.73 104.51,-133.85 127.31,-175.38 -309.76,550.05 -424.63,773.58 -654.58,1373.31 -31.18,81.3 -58.79,157.64 -90.12,245.42 -111.94,313.66 -28.27,222.05 -226.25,279.73 -12.61,-180.49 -11.91,-342.45 -128.67,-473.14 -88.22,-98.76 -263.9,-175.76 -451.93,-149.07 -329.76,46.81 -486.9,336.17 -808.27,417.3 -367.89,92.89 -671.73,-163.8 -1091.87,-3.35 -241.1,92.08 -514.1,408.31 -419.88,780.9 60.08,-60.02 65.94,-110.87 155.38,-177.15 71.96,-53.32 146.58,-92.47 260.38,-93.35 458.14,-3.55 747.69,539.3 1426.88,-25.48 33.9,-28.19 54.04,-63.24 89.74,-83.93 34.14,43.22 56.01,110.45 80.24,161.59l89.95 154.72c13.15,42.48 -26.27,132.81 4.42,216.4 24.33,66.29 67.93,100.33 98.52,145.94 -179.04,5.65 -294.25,-59.06 -534.16,-15.92 -316.78,56.97 -549.81,241.11 -657.16,536.93 -61.95,170.71 -62.89,347.49 -4.68,522.22l221.57 -235.37c138.67,-145.69 388.57,-249.76 538.88,-387.25 60.86,-55.67 127.34,-106.11 176.38,-170.94 12.09,-15.99 31.98,-42.99 50.46,-57.36 -74.76,441.48 -545.71,433.59 -940.06,1031.39 -112.33,170.27 -191.56,286.62 -361.6,379.36 -163.3,89.08 -53.76,117.61 -249.63,502.59 -45.21,88.86 -159.06,248.66 -182.55,318.08 25.65,48.37 85.78,100.05 80.12,161.9 -4.44,48.43 2.66,14.75 -12.25,33.43 -27.76,22.37 -701.36,115.98 -831.07,139.05 -101.41,18.03 -205.27,16.71 -208.51,128.66 47.69,89.79 140.97,53.5 253.91,40.71 292.32,-33.08 588.38,-74.48 882.31,-98.36 1709.79,-138.89 3290.02,-101.84 4989.9,102.99 84.59,10.19 233.95,50.73 248.21,-49.27 14.75,-103.45 -114.13,-105.62 -203.41,-120.45 -176.23,-29.28 -722.19,-102.53 -854.06,-132.74 -101.52,-23.27 -120.87,-80.51 -187.05,-136.15 -156.25,-131.39 -183.79,-49.88 -284.22,-376.63 -125.02,-406.76 -147.16,-696.43 -168,-1151.78l626.22 96.88c-5.64,56.51 -128.54,384.33 -159.6,415.08 -64.63,63.98 -136.75,-11.58 -157.91,133.31 -11.35,77.72 -24.58,200.82 -19.46,282.33 59.11,-15.36 374.77,-244.19 400.92,-319.59 55.55,-160.13 113.14,-388.14 156.4,-561.63 57.56,-230.78 -218.78,-221.86 -402.13,-291.99 -285.22,-109.09 -250.49,158.92 -445.28,229.16 -7.8,-330.8 -53.44,-433.29 -219.1,-619.23 -65.56,-73.59 -371.24,-309.92 -490.18,-349.89 2.53,162.67 -2.92,293.73 -87.66,406.51 -84.1,-75.22 39.12,-183.06 -25.91,-321.03 -29.6,-62.8 -109.23,-193.8 -170.88,-236.14l-89.6 93.1c39.04,72.36 125.48,146.4 153.66,204.22 50.51,103.65 -73.85,141.19 -137.39,186.94 -216.05,155.51 -180.62,256.01 -283.17,444.79 -25.31,-291.55 119.2,-489.35 278.04,-587.13 -19.31,-39.7 -58.25,-52.68 -98.95,-81.51 -86.41,-61.21 -164.27,-117.24 -228,-200.23l-26.4 -32.46c-1.77,-1.85 -4.62,-4.48 -6.27,-6.12 -1.69,-1.67 -5.22,-4.64 -6.62,-5.98 -1.42,-1.34 -4.37,-4.13 -6.78,-5.91 -40.31,31.58 -64.11,81.92 -114.76,109.72 -28.84,-127.47 -1.8,-122.48 25.66,-229.66 -65.93,8.06 -114.99,26.33 -184.81,13.78 36.39,-21.99 181.92,-62.77 235.69,-79.01 126.28,-38.12 164.41,-31.27 282.22,-8.15l48.47 -144.94 72.42 1.82c11.73,74.65 -102.77,243.57 -63.91,336.33 150.72,-58.8 97.03,-278.04 215.34,-324.89 76.91,-30.44 57.33,-45.03 108.8,-85.28 223.28,76.52 865.06,497.66 1045.55,564.89l-1.58 -402.68c13.79,-5.4 336.53,-103.43 356.76,-107.11 20.12,39.42 14.34,75.5 51.18,99.43 53.56,34.79 68.66,-12.75 115.09,47.3 28.56,36.92 27.52,58.35 81.31,67.46 52.97,8.96 86.97,-15.84 110.32,-41.53 145.6,-160.19 96.52,-281.71 80.71,-531.54 -12.21,-193.11 -8.78,-371.89 -78.9,-545.02 -19.41,-47.93 -92.07,-179.06 -91.5,-217.89 1.06,-73.23 56.27,-174.45 52.12,-261.32 -38.32,26.97 -78.01,49.64 -119.83,78.64 -59.33,41.13 -64.15,69.12 -151.22,40.87 -234.42,-76.07 -497.45,-60.88 -729.33,28.09 -76.9,29.5 -61.24,53.42 -94.8,124.74 -25.6,54.4 -58.26,92.38 -79.84,141.28 126.13,-44.28 174.01,-107.8 365.91,-155.18 147.78,-36.48 323.35,-47.92 460.87,5.8 -53.38,213.84 -378.66,-20.88 -789.5,266.54 -164.87,115.35 -446.04,479.9 -460.88,620.77 158.7,88.41 940.74,169.85 1107.5,69.46 -33.45,-67.11 -346.76,-340.54 37.73,-758.13 38.74,-42.07 41.65,-53.34 111.3,-51.89 0.3,67.44 -167.02,204.7 -192.25,422.56 -25.59,220.97 76.16,278.86 224.9,387.45 -78,123 -473.9,157.97 -669.06,148.77 -263.57,-12.41 -470.04,-62.55 -704.06,-130.39 -4.33,-49.08 13.34,-67.69 -4.71,-119.49 -41.12,-118.06 -104.88,12.6 5.78,-263.94 46.84,-117.04 312.55,-175.99 380.44,-388.6 -71.22,19.27 -111.04,46.54 -203.37,51.71l41.29 -36.8c98.02,-59.76 217.41,-104.25 272.63,-212.48 43.68,-85.62 141.49,-308.59 164.14,-396.88l-220.09 91.45c45.65,-74.61 157.79,-115.57 233.35,-176.98 52.47,-42.64 114.23,-195.21 134.4,-276.61 -75.39,35.32 -119.43,75.45 -228.27,91.44 147.54,-168.12 246.37,-112.82 310.17,-394.6 33.24,-146.83 67.93,-276.36 133.68,-401.92 23.22,-44.35 49.38,-78.77 66.88,-119.24 -195.02,48.41 -339.96,160.46 -473.45,257.08 -270.12,195.51 -207.98,327.97 -267.43,469.58z"/>
    <path class="fil0" d="M279.16 4581.21c29.34,69.86 133.21,151.04 214.73,193.33 292.09,151.51 661.72,22.03 824.67,-263.35 144.14,-252.47 90.94,-546.5 324.44,-890.97 61.09,-90.13 175.34,-199 191.63,-228.61 -500.87,-20.81 -639.89,205.6 -786.2,582.8 -77.02,198.58 -122.2,317.7 -247.35,435.98 -133.58,126.24 -272.81,171.83 -521.92,170.82z"/>
    <path class="fil0" d="M2153.03 703.61c-18.95,310.2 364.32,702.76 794.13,296.29 37.85,-35.79 81.87,-85.1 148.84,-94.37 80.89,-11.19 123.4,35.07 142.59,89.41 -48.36,53.18 -177.03,71.78 -223.15,234.5 -22.78,80.36 -9.06,128.07 -1.71,205.71 10.23,108.11 -19.18,117.82 -46.5,191.62 137.07,-10.44 173.81,-16.91 306.59,20.99 100.65,28.73 190.16,57.17 307.97,58.63 -8.09,-70.17 -19.73,-111.69 -10.66,-188.07 6.19,-52.2 36.19,-115.22 25.13,-168.68l-299.6 -15.2c-2.06,93.86 96.97,48.32 159.81,116.78l0.47 126.99c-187.6,-27.47 -268.59,-109.91 -268.65,-282.14 -0.09,-228.01 154.71,-178.9 278.01,-273.35 -217.01,-147.18 -63.74,-180.8 -198.35,-318.94 -264.32,-271.21 -548.84,102.21 -743.39,152.92 -108.77,28.35 -226.46,-11.31 -300.85,-81.08 -39.49,-37.03 -26.85,-44.69 -70.69,-72.02z"/>
    <path class="fil0" d="M3732.12 2950.59c323.43,105.62 902.19,428.84 1014.1,780.11 21.31,66.86 18,176.87 36.53,227.08 126.87,-71.72 155.85,-381.91 140.54,-532.85 -6.79,-67.06 -15.29,-67.06 -66.59,-96.11l-334.15 -187.03c-156.55,-87.94 -283.17,-155.46 -432.32,-238.66 -198.92,-110.95 -305.47,-237.92 -358.12,47.46z"/>
    <path class="fil0" d="M3300.38 1253.34c56.98,17.14 229.03,15.68 300.25,7.65 -6.1,-47.39 -20.36,-113.85 -44.95,-152.27l-215.38 74.82c-57.77,21.3 -46.16,5.03 -39.92,69.81z"/>
   </g>
   <path class="fil1" d="M9431.35 4685.13c-300.95,0 -560.99,-66.47 -780.12,-199.41 -219.14,-132.93 -388.6,-318.47 -508.4,-556.6 -119.79,-238.12 -179.68,-514.97 -179.68,-830.52 0,-312.64 59.9,-588.75 179.68,-828.33 119.8,-239.59 289.26,-425.85 508.4,-558.8 219.13,-132.93 479.17,-199.41 780.12,-199.41 356.46,0 644.98,84.74 865.57,254.2 220.59,169.46 361.57,407.59 422.93,714.38l-438.27 0c-43.83,-187 -136.59,-336.74 -278.3,-449.23 -141.7,-112.49 -333.82,-168.73 -576.33,-168.73 -213.29,0 -399.55,49.67 -558.79,149.01 -159.24,99.34 -282.69,241.05 -370.33,425.12 -87.66,184.07 -131.48,404.66 -131.48,661.78 0,257.12 43.83,478.44 131.48,663.97 87.65,185.53 211.09,327.25 370.33,425.12 159.23,97.88 345.5,146.82 558.79,146.82 242.51,0 435.35,-54.06 578.52,-162.16 143.16,-108.11 239.59,-264.42 289.26,-468.95l433.88 0c-64.28,315.56 -207.44,558.07 -429.5,727.53 -222.05,169.46 -511.31,254.19 -867.76,254.19zm2677.81 0c-213.29,0 -404.66,-47.48 -574.13,-142.43 -169.46,-94.96 -302.41,-227.9 -398.82,-398.82 -96.43,-170.92 -144.63,-370.33 -144.63,-598.24 0,-230.82 48.94,-430.96 146.82,-600.42 97.88,-169.46 232.28,-301.68 403.2,-396.63 170.92,-94.96 363.03,-142.43 576.33,-142.43 213.29,0 404.66,47.48 574.13,142.43 169.46,94.96 302.41,227.17 398.82,396.63 96.42,169.46 144.63,369.6 144.63,600.42 0,227.9 -48.95,427.31 -146.82,598.24 -97.88,170.92 -231.55,303.87 -401.01,398.82 -169.46,94.96 -362.3,142.43 -578.52,142.43zm0 -337.47c131.48,0 252.01,-29.95 361.57,-89.84 109.57,-59.9 197.22,-149.74 262.96,-269.54 65.74,-119.8 98.61,-267.34 98.61,-442.65 0,-178.23 -32.87,-326.51 -98.61,-444.84 -65.74,-118.34 -152.66,-207.44 -260.77,-267.34 -108.11,-59.9 -226.44,-89.85 -355,-89.85 -128.56,0 -247.63,30.68 -357.2,92.04 -109.57,61.36 -197.95,150.47 -265.15,267.34 -67.2,116.88 -100.81,264.42 -100.81,442.65 0,175.31 32.88,322.86 98.62,442.65 65.74,119.8 152.66,209.64 260.77,269.54 108.11,59.89 226.44,89.84 355,89.84zm1529.56 284.88l0 -2173.81 394.44 0 0 359.39c70.12,-128.56 169.46,-229.36 298.02,-302.41 128.56,-73.05 274.65,-109.57 438.27,-109.57 257.12,0 461.64,78.89 613.57,236.66 151.93,157.77 227.9,400.28 227.9,727.53l0 1262.21 -394.44 0 0 -1222.77c0,-222.05 -46.02,-388.59 -138.05,-499.62 -92.04,-111.04 -228.63,-166.54 -409.78,-166.54 -184.07,0 -336.01,66.47 -455.79,199.41 -119.8,132.93 -179.69,320.67 -179.69,563.17l0 1126.35 -394.44 0zm3155.53 0c-122.71,0 -226.44,-15.34 -311.18,-46.02 -84.73,-30.68 -148.27,-88.39 -190.64,-173.11 -42.37,-84.74 -63.55,-204.53 -63.55,-359.39l0 -1262.21 -376.91 0 0 -333.09 376.91 0 0 -530.3 394.43 0 0 530.3 613.58 0 0 333.09 -613.58 0 0 1200.85c0,93.5 7.31,162.16 21.92,205.99 14.61,43.83 45.29,70.85 92.04,81.08 46.75,10.23 113.95,15.34 201.6,15.34l267.35 0 0 337.47 -411.97 0zm1455.04 52.59c-175.3,0 -322.86,-29.95 -442.65,-89.84 -119.79,-59.9 -209.63,-140.25 -269.53,-241.05 -59.9,-100.81 -89.85,-208.18 -89.85,-322.13 0,-236.67 85.47,-417.08 256.39,-541.27 170.92,-124.17 395.17,-186.26 672.74,-186.26 122.71,0 233.74,8.77 333.08,26.3 99.35,17.53 181.15,37.99 245.43,61.36l0 -96.42c0,-186.99 -48.94,-327.98 -146.81,-422.93 -97.89,-94.96 -228.63,-142.43 -392.25,-142.43 -134.4,0 -250.54,27.76 -348.43,83.27 -97.88,55.52 -158.5,149.01 -181.87,280.5l-394.44 0c17.53,-154.85 70.85,-283.42 159.96,-385.68 89.12,-102.26 200.87,-178.22 335.28,-227.89 134.4,-49.68 277.57,-74.51 429.5,-74.51 309.71,0 542.73,81.08 699.04,243.24 156.31,162.15 234.47,377.63 234.47,646.44l0 653.01c0,105.19 6.58,182.61 19.72,232.29 13.15,49.67 35.8,80.35 67.94,92.04 32.14,11.68 75.97,17.53 131.47,17.53l30.68 0 0 341.85 -83.27 0c-143.16,0 -260.04,-23.38 -350.62,-70.13 -90.58,-46.75 -151.93,-140.24 -184.07,-280.49 -67.2,113.96 -159.96,209.64 -278.3,287.07 -118.34,77.43 -269.54,116.14 -453.61,116.14zm61.36 -319.93c128.56,0 238.86,-32.15 330.9,-96.43 92.04,-64.28 164.35,-149 216.94,-254.19 52.6,-105.19 81.81,-216.21 87.66,-333.09 -67.21,-20.45 -149.01,-38.72 -245.43,-54.79 -96.42,-16.07 -192.84,-24.1 -289.26,-24.1 -198.68,0 -342.58,38.71 -431.69,116.14 -89.12,77.43 -133.67,174.58 -133.67,291.45 0,102.27 40.18,187 120.52,254.2 80.35,67.2 195.03,100.81 344.04,100.81zm2607.69 319.93c-216.21,0 -404.66,-49.67 -565.37,-149 -160.69,-99.35 -286.33,-235.21 -376.9,-407.59 -90.58,-172.38 -135.86,-368.14 -135.86,-587.28 0,-219.14 45.29,-414.16 135.86,-585.09 90.58,-170.93 216.94,-305.33 379.09,-403.21 162.16,-97.88 349.89,-146.81 563.18,-146.81 178.23,0 335.28,35.79 471.14,107.38 135.86,71.58 240.32,171.65 313.36,300.21l0 -1336.71 394.44 0 0 3155.53 -394.44 0 0 -355c-70.12,105.19 -168.73,199.41 -295.83,282.68 -127.09,83.28 -289.99,124.9 -488.67,124.9zm52.6 -341.85c143.16,0 268.8,-33.6 376.9,-100.8 108.11,-67.21 192.84,-160.7 254.2,-280.5 61.36,-119.8 92.04,-258.58 92.04,-416.35 0,-157.77 -30.68,-296.56 -92.04,-416.35 -61.36,-119.8 -146.09,-213.29 -254.2,-280.49 -108.11,-67.21 -233.74,-100.81 -376.9,-100.81 -140.24,0 -265.89,33.6 -376.91,100.81 -111.03,67.2 -197.22,159.96 -258.58,278.3 -61.36,118.33 -92.04,257.85 -92.04,418.54 0,157.77 30.68,296.56 92.04,416.35 61.36,119.8 147.55,213.29 258.58,280.5 111.03,67.2 236.67,100.8 376.91,100.8zm2629.6 341.85c-213.29,0 -404.66,-47.48 -574.13,-142.43 -169.46,-94.96 -302.41,-227.9 -398.82,-398.82 -96.43,-170.92 -144.63,-370.33 -144.63,-598.24 0,-230.82 48.94,-430.96 146.82,-600.42 97.88,-169.46 232.28,-301.68 403.2,-396.63 170.92,-94.96 363.03,-142.43 576.33,-142.43 213.29,0 404.66,47.48 574.13,142.43 169.46,94.96 302.41,227.17 398.82,396.63 96.42,169.46 144.63,369.6 144.63,600.42 0,227.9 -48.95,427.31 -146.82,598.24 -97.88,170.92 -231.55,303.87 -401.01,398.82 -169.46,94.96 -362.3,142.43 -578.52,142.43zm0 -337.47c131.48,0 252.01,-29.95 361.57,-89.84 109.57,-59.9 197.22,-149.74 262.96,-269.54 65.74,-119.8 98.61,-267.34 98.61,-442.65 0,-178.23 -32.87,-326.51 -98.61,-444.84 -65.74,-118.34 -152.66,-207.44 -260.77,-267.34 -108.11,-59.9 -226.44,-89.85 -355,-89.85 -128.56,0 -247.63,30.68 -357.2,92.04 -109.57,61.36 -197.95,150.47 -265.15,267.34 -67.2,116.88 -100.81,264.42 -100.81,442.65 0,175.31 32.88,322.86 98.62,442.65 65.74,119.8 152.66,209.64 260.77,269.54 108.11,59.89 226.44,89.84 355,89.84zm1529.56 284.88l0 -2173.81 394.44 0 0 341.85c49.67,-113.95 116.88,-202.33 201.6,-265.15 84.74,-62.82 188.45,-94.23 311.17,-94.23l324.33 0 0 368.14 -363.76 0c-93.5,0 -176.04,26.3 -247.62,78.89 -71.59,52.6 -127.1,136.59 -166.54,252.01 -39.45,115.41 -59.17,268.07 -59.17,457.99l0 1034.31 -394.44 0z"/>
  </g>
 </g>
</svg>
