<?xml version="1.0" encoding="UTF-8"?>
<!DOCTYPE svg PUBLIC "-//W3C//DTD SVG 1.1//EN" "http://www.w3.org/Graphics/SVG/1.1/DTD/svg11.dtd">
<!-- Creator: CorelDRAW -->
<svg xmlns="http://www.w3.org/2000/svg" xml:space="preserve" width="150mm" height="150mm" version="1.1" style="shape-rendering:geometricPrecision; text-rendering:geometricPrecision; image-rendering:optimizeQuality; fill-rule:evenodd; clip-rule:evenodd"
viewBox="0 0 2010.72 2010.72"
 xmlns:xlink="http://www.w3.org/1999/xlink"
 xmlns:xodm="http://www.corel.com/coreldraw/odm/2003">
 <defs>
  <style type="text/css">
   <![CDATA[
    .fil1 {fill:#1B1714}
    .fil0 {fill:#F0FE52}
   ]]>
  </style>
 </defs>
 <g id="Слой_x0020_1">
  <metadata id="CorelCorpID_0Corel-Layer"/>
  <rect class="fil0" x="0" width="2010.72" height="2010.72" rx="88.51" ry="167.56"/>
  <g id="_1829784066592">
   <path class="fil1" d="M779.19 1406.24c2.39,1.98 2.22,2 5.97,4.09 15.67,8.68 18.05,3.88 47.19,24.46 37.48,26.47 55.71,45.77 85.47,77.78 9.05,9.74 37.12,29.52 36.62,44.81 -87.55,0.13 -192.12,4.67 -279.89,10.2 -27.35,1.72 -67.09,6.85 -93.05,5.28 -8.45,-6.06 -29.72,-31.86 -36.73,-42.14 -1.79,-7.25 67.52,-127.94 73.96,-134.34 13.24,-13.15 97.46,-50.8 132.36,-75.09 84.35,-58.71 95.78,-104.49 217.12,-88.69 16.04,2.09 31.19,3.42 47.82,4.41 28.47,1.7 13.79,6.45 19.73,32.92 120.71,0.35 179.24,-45.41 220.54,-48.73 30.08,83.38 68.77,184.21 96.34,268.72 5.56,17.03 4.61,34.45 15.56,45.27 13.04,12.9 22.22,9.9 28.27,35.9 -107.17,-4.45 -217.99,-12.14 -325.45,-13.58 -24.45,-0.33 -23.25,-3.25 -39.07,-15.25 -53.45,-40.56 -40.72,-33.83 -86.5,-82.28 -77.06,-81.55 -86.83,-68.44 -54.27,-131.31 8.66,-16.72 31.26,-60.92 35.41,-77 -45.97,-4.03 -86.43,16.95 -108.54,39.75 -21.27,21.94 -32.22,76.6 -38.87,114.81zm298.9 -173.07c-1.49,-13.04 3.69,-26.14 9.8,-34.41 14.54,-5.61 75,11.42 84.4,19.36 -6.16,4.54 -83.26,15.93 -94.2,15.05zm37.01 -62.67c-29.78,2.33 -31.81,-11.32 -21.23,-57.33 4.94,-21.46 15.56,-53.35 40.24,-46.55 11.56,21.51 -12.24,78.89 -19.01,103.88zm-152.84 -350.19c1.58,-20.32 13.63,-41.43 24.32,-49.25 23.06,-16.88 87.49,25.59 116.49,3.14 20.34,-15.75 29.78,-11.61 47.77,0.98 -0.43,56.94 -32.1,37.78 -54.69,35.32 -14.57,-1.58 -30.17,1.68 -44.53,3.18 -28.88,3.03 -59.9,7.1 -89.37,6.63zm-32.19 -20.54c-19.64,-17.33 -18.38,-72.48 -14.1,-101.58 5.3,-36.07 19.79,-62.3 49.93,-72.37 52.96,-17.69 125.71,31.79 109.72,124.53l-53.75 -11.11c1.16,-26.43 15.03,-58.79 -3.32,-79.88 -19.29,-22.16 -54.2,-10.32 -63.45,8.45 -18.63,37.79 10.86,44.01 6.97,73.57 -2.05,15.59 -9.82,19.22 -17.26,29.51 -5.94,8.22 -9.08,20.14 -14.74,28.87zm604.25 -102.9c-56.7,-20.76 -16.82,-85.32 20.95,-94.98 10.62,20.72 20.71,98.77 22.14,126.58 1.99,38.84 15.56,105.6 -13.55,126.38 -9.8,-24.48 -12.56,-108.59 -13.21,-142.97 -0.34,-17.92 3.78,-32.46 2.05,-47.32l-28.44 -19.37c-2.82,34.14 7.71,26.34 10.06,51.68zm-277.36 -336.81l-3.64 -39.12c-15.3,7.39 -37.2,47.7 -47.77,66.17 -19.8,34.58 -19.03,49.03 -18.52,95.64 -7.44,-11.45 -7.22,-23.58 -10.52,-39.02 -9.76,9.13 -21.42,43.97 -25.77,60.12 -9.42,34.92 2.75,50.27 2.62,79.38 -6.8,-9.7 -14.44,-28.37 -18.57,-33.54 -15.98,37.71 -3.88,90.64 9.09,122.9 6.28,-10.32 15.34,-36.7 20.47,-50.09 32.33,-84.45 71.92,-167.71 115.73,-244.02 8.75,-15.25 17.49,-29.67 27.66,-44.18 8.5,-12.12 24.97,-31.99 30.42,-41.91 -74.02,131.45 -101.47,184.86 -156.43,328.18 -7.45,19.43 -14.05,37.67 -21.53,58.65 -26.75,74.95 -6.76,53.06 -54.07,66.85 -3.01,-43.13 -2.84,-81.84 -30.75,-113.07 -21.08,-23.6 -63.07,-42 -108,-35.62 -78.8,11.18 -116.36,80.33 -193.15,99.72 -87.92,22.2 -160.52,-39.14 -260.93,-0.8 -57.62,22 -122.85,97.58 -100.34,186.61 14.36,-14.34 15.76,-26.49 37.13,-42.33 17.2,-12.74 35.03,-22.1 62.22,-22.31 109.48,-0.85 178.68,128.88 340.98,-6.09 8.1,-6.74 12.92,-15.11 21.45,-20.05 8.16,10.33 13.38,26.39 19.17,38.62l21.49 36.97c3.14,10.15 -6.28,31.74 1.06,51.71 5.81,15.84 16.23,23.97 23.54,34.88 -42.79,1.35 -70.32,-14.11 -127.65,-3.8 -75.7,13.61 -131.39,57.62 -157.04,128.31 -14.8,40.79 -15.03,83.04 -1.12,124.79l52.95 -56.25c33.14,-34.82 92.86,-59.69 128.78,-92.54 14.54,-13.3 30.43,-25.36 42.15,-40.85 2.89,-3.82 7.64,-10.27 12.06,-13.71 -17.86,105.5 -130.41,103.62 -224.65,246.47 -26.84,40.69 -45.78,68.49 -86.41,90.66 -39.02,21.29 -12.84,28.1 -59.65,120.1 -10.8,21.23 -38.01,59.42 -43.62,76.01 6.13,11.56 20.5,23.91 19.14,38.69 -1.06,11.57 0.64,3.52 -2.93,7.99 -6.63,5.35 -167.61,27.71 -198.6,33.23 -24.23,4.31 -49.05,3.99 -49.83,30.75 11.4,21.46 33.69,12.79 60.68,9.73 69.86,-7.91 140.61,-17.8 210.85,-23.51 408.59,-33.19 786.22,-24.34 1192.45,24.61 20.21,2.44 55.91,12.12 59.32,-11.77 3.52,-24.72 -27.27,-25.24 -48.61,-28.79 -42.11,-7 -172.58,-24.5 -204.1,-31.72 -24.26,-5.56 -28.88,-19.24 -44.7,-32.53 -37.34,-31.4 -43.92,-11.92 -67.92,-90.01 -29.88,-97.21 -35.17,-166.43 -40.15,-275.24l149.65 23.15c-1.35,13.5 -30.72,91.84 -38.14,99.19 -15.45,15.29 -32.68,-2.77 -37.74,31.86 -2.71,18.57 -5.88,47.99 -4.65,67.47 14.12,-3.67 89.56,-58.35 95.81,-76.37 13.27,-38.27 27.03,-92.75 37.37,-134.21 13.75,-55.15 -52.28,-53.02 -96.1,-69.78 -68.16,-26.07 -59.86,37.98 -106.41,54.76 -1.86,-79.05 -12.77,-103.54 -52.36,-147.98 -15.67,-17.58 -88.72,-74.06 -117.14,-83.61 0.6,38.87 -0.7,70.19 -20.95,97.15 -20.1,-17.98 9.35,-43.75 -6.19,-76.72 -7.07,-15.01 -26.1,-46.31 -40.84,-56.43l-21.41 22.25c9.33,17.29 29.99,34.99 36.72,48.8 12.07,24.77 -17.65,33.74 -32.83,44.67 -51.63,37.16 -43.16,61.18 -67.67,106.29 -6.05,-69.67 28.49,-116.94 66.44,-140.31 -4.61,-9.49 -13.92,-12.59 -23.64,-19.48 -20.65,-14.63 -39.26,-28.02 -54.49,-47.85l-6.31 -7.76c-0.42,-0.44 -1.1,-1.07 -1.5,-1.46 -0.4,-0.4 -1.25,-1.11 -1.58,-1.43 -0.34,-0.32 -1.04,-0.99 -1.62,-1.41 -9.63,7.55 -15.32,19.58 -27.42,26.22 -6.89,-30.46 -0.43,-29.27 6.13,-54.88 -15.75,1.92 -27.48,6.29 -44.16,3.29 8.7,-5.26 43.47,-15 56.32,-18.88 30.18,-9.11 39.29,-7.47 67.44,-1.95l11.58 -34.64 17.31 0.44c2.8,17.84 -24.56,58.21 -15.27,80.37 36.02,-14.05 23.19,-66.45 51.46,-77.64 18.38,-7.27 13.7,-10.76 26,-20.38 53.36,18.29 206.73,118.93 249.86,134.99l-0.38 -96.23c3.3,-1.29 80.42,-24.72 85.25,-25.6 4.81,9.42 3.43,18.04 12.23,23.76 12.8,8.31 16.41,-3.05 27.5,11.3 6.82,8.82 6.58,13.94 19.43,16.12 12.66,2.14 20.78,-3.78 26.36,-9.92 34.8,-38.28 23.07,-67.32 19.29,-127.02 -2.92,-46.15 -2.1,-88.87 -18.85,-130.24 -4.64,-11.45 -22,-42.79 -21.87,-52.07 0.25,-17.5 13.45,-41.69 12.45,-62.45 -9.16,6.45 -18.64,11.86 -28.64,18.79 -14.18,9.83 -15.33,16.52 -36.14,9.76 -56.02,-18.18 -118.88,-14.55 -174.29,6.71 -18.38,7.05 -14.64,12.77 -22.66,29.81 -6.12,13 -13.92,22.08 -19.08,33.76 30.14,-10.58 41.59,-25.76 87.45,-37.08 35.32,-8.72 77.27,-11.45 110.13,1.39 -12.75,51.1 -90.49,-4.99 -188.67,63.69 -39.4,27.56 -106.59,114.68 -110.14,148.35 37.92,21.13 224.81,40.59 264.66,16.6 -7.99,-16.04 -82.86,-81.38 9.02,-181.17 9.26,-10.05 9.95,-12.75 26.6,-12.4 0.07,16.12 -39.91,48.92 -45.94,100.98 -6.11,52.8 18.2,66.64 53.75,92.59 -18.64,29.39 -113.25,37.75 -159.89,35.55 -62.99,-2.97 -112.33,-14.95 -168.25,-31.16 -1.04,-11.73 3.18,-16.18 -1.13,-28.55 -9.83,-28.21 -25.06,3.01 1.38,-63.07 11.19,-27.97 74.69,-42.06 90.92,-92.86 -17.02,4.6 -26.53,11.12 -48.6,12.36l9.87 -8.79c23.42,-14.28 51.95,-24.91 65.15,-50.78 10.44,-20.46 33.81,-73.74 39.23,-94.84l-52.6 21.85c10.91,-17.83 37.71,-27.62 55.76,-42.29 12.54,-10.19 27.3,-46.65 32.12,-66.1 -18.01,8.44 -28.54,18.03 -54.55,21.85 35.26,-40.18 58.87,-26.96 74.12,-94.3 7.94,-35.09 16.23,-66.04 31.95,-96.05 5.55,-10.6 11.8,-18.82 15.98,-28.49 -46.6,11.57 -81.24,38.35 -113.14,61.43 -64.55,46.72 -49.7,78.38 -63.91,112.22z"/>
   <path class="fil1" d="M310.29 1281.19c7.01,16.69 31.83,36.1 51.32,46.2 69.8,36.21 158.13,5.26 197.07,-62.93 34.45,-60.33 21.73,-130.6 77.53,-212.92 14.6,-21.54 41.9,-47.55 45.79,-54.63 -119.69,-4.97 -152.92,49.13 -187.88,139.27 -18.4,47.45 -29.2,75.92 -59.11,104.19 -31.92,30.17 -65.19,41.06 -124.72,40.82z"/>
   <path class="fil1" d="M758.09 354.56c-4.53,74.13 87.06,167.94 189.77,70.81 9.05,-8.55 19.56,-20.34 35.57,-22.55 19.33,-2.67 29.49,8.38 34.08,21.37 -11.56,12.71 -42.31,17.15 -53.33,56.04 -5.44,19.21 -2.17,30.61 -0.41,49.16 2.45,25.83 -4.58,28.15 -11.11,45.79 32.76,-2.49 41.54,-4.04 73.27,5.02 24.05,6.87 45.44,13.66 73.6,14.01 -1.93,-16.77 -4.71,-26.69 -2.55,-44.95 1.48,-12.47 8.65,-27.53 6.01,-40.31l-71.6 -3.63c-0.49,22.43 23.17,11.55 38.19,27.9l0.11 30.35c-44.83,-6.57 -64.19,-26.26 -64.2,-67.42 -0.02,-54.49 36.97,-42.75 66.44,-65.32 -51.86,-35.17 -15.23,-43.21 -47.4,-76.22 -63.16,-64.81 -131.16,24.42 -177.65,36.54 -25.99,6.78 -54.12,-2.7 -71.89,-19.38 -9.44,-8.85 -6.41,-10.68 -16.89,-17.21z"/>
   <path class="fil1" d="M1135.45 891.52c77.29,25.24 215.6,102.48 242.34,186.42 5.09,15.98 4.3,42.27 8.73,54.27 30.32,-17.14 37.24,-91.27 33.59,-127.34 -1.62,-16.02 -3.66,-16.02 -15.91,-22.97l-79.85 -44.69c-37.41,-21.01 -67.67,-37.15 -103.31,-57.03 -47.54,-26.51 -73,-56.86 -85.58,11.34z"/>
   <path class="fil1" d="M1032.28 485.93c13.62,4.1 54.73,3.75 71.75,1.83 -1.46,-11.32 -4.86,-27.21 -10.74,-36.39l-51.47 17.88c-13.8,5.09 -11.03,1.2 -9.54,16.68z"/>
  </g>
 </g>
</svg>
